<svg xmlns="http://www.w3.org/2000/svg" version="1.1" xmlns:xlink="http://www.w3.org/1999/xlink" xmlns:svgjs="http://svgjs.dev/svgjs" width="1920" height="1080" preserveAspectRatio="none" viewBox="0 0 1920 1080"><g mask="url(&quot;#SvgjsMask1023&quot;)" fill="none"><rect width="1920" height="1080" x="0" y="0" fill="rgba(235, 235, 235, 1)"></rect><path d="M0,592.582C108.689,580.237,191.538,500.36,284.161,442.164C377.861,383.291,499.711,349.863,546.159,249.423C592.638,148.915,530.318,35.262,523.438,-75.259C515.796,-198.031,571.873,-334.022,503.476,-436.264C434.377,-539.556,297.672,-576.046,175.025,-596.08C61.241,-614.667,-46.264,-563.993,-159.918,-544.63C-291.644,-522.188,-445.264,-560.869,-546.124,-473.219C-648.236,-384.481,-669.834,-232.23,-674.962,-97.045C-679.774,29.803,-636.742,151.786,-574.017,262.145C-515.199,365.629,-432.071,452.413,-328.912,511.797C-229.047,569.285,-114.494,605.586,0,592.582" fill="#dfdfdf"></path><path d="M1920 1778.326C2079.169 1803.691 2246.786 1884.2089999999998 2392.321 1814.9450000000002 2539.93 1744.694 2596.007 1568.339 2668.785 1421.959 2743.9139999999998 1270.851 2828.901 1118.902 2822.2219999999998 950.28 2815.186 772.639 2761.458 584.655 2630.844 464.04999999999995 2503.734 346.67999999999995 2315.386 325.76300000000003 2142.405 322.557 1997.216 319.866 1876.827 419.827 1734.261 447.432 1570.41 479.158 1362.6509999999998 376.60299999999995 1246.1399999999999 496.097 1131.269 613.9100000000001 1245.144 816.831 1216.159 978.803 1185.652 1149.277 1000.475 1309.546 1072.3780000000002 1467.096 1144.2759999999998 1624.635 1372.879 1618.704 1535.437 1678.392 1662.336 1724.987 1786.502 1757.0520000000001 1920 1778.326" fill="#f7f7f7"></path></g><defs><mask id="SvgjsMask1023"><rect width="1920" height="1080" fill="#ffffff"></rect></mask></defs></svg>