<svg xmlns="http://www.w3.org/2000/svg" version="1.1" xmlns:xlink="http://www.w3.org/1999/xlink" xmlns:svgjs="http://svgjs.dev/svgjs" width="375" height="800" preserveAspectRatio="none" viewBox="0 0 375 800"><g mask="url(&quot;#SvgjsMask1020&quot;)" fill="none"><rect width="375" height="800" x="0" y="0" fill="rgba(235, 235, 235, 1)"></rect><path d="M0,247.618C46.896,246.037,59.689,178.595,94.693,147.346C122.408,122.604,162.631,114.539,183.501,83.802C206.299,50.225,217.188,9.533,215.806,-31.028C214.328,-74.402,203.781,-119.153,175.464,-152.041C147.111,-184.971,104.032,-200.346,61.674,-210.043C21.133,-219.324,-21.471,-220.415,-60.505,-206.06C-98.137,-192.22,-127.196,-163.195,-151.8,-131.535C-175.407,-101.158,-186.981,-65.253,-198.466,-28.535C-212.076,14.978,-246.94,62.78,-225.094,102.797C-202.898,143.455,-137.843,128.808,-98.887,153.871C-59.9,178.954,-46.333,249.18,0,247.618" fill="#dfdfdf"></path><path d="M375 1160.825C443.541 1159.454 518.643 1147.004 566.393 1097.814 612.341 1050.481 597.95 973.7760000000001 617.679 910.828 634.306 857.777 669.376 812.596 673.1669999999999 757.13 677.5830000000001 692.515 688.233 613.8240000000001 641.008 569.502 593.119 524.557 513.624 560.196 449.284 547.012 392.328 535.341 342.635 483.792 285.957 496.747 228.924 509.784 199.015 570.127 159.483 613.254 118.70400000000001 657.741 64.40800000000002 694.599 50.718999999999994 753.375 36.65300000000002 813.772 63.99599999999998 874.076 85.16399999999999 932.364 108.01999999999998 995.302 126.03399999999999 1064.12 178.621 1105.571 233.13 1148.537 305.60699999999997 1162.213 375 1160.825" fill="#f7f7f7"></path></g><defs><mask id="SvgjsMask1020"><rect width="375" height="800" fill="#ffffff"></rect></mask></defs></svg>