<svg xmlns="http://www.w3.org/2000/svg" viewBox="0 0 408.83 287.55">
  <title>Mail</title>
  <g fill="#FFF">
    <path d="M408.83,256.38c-1.09,3.36-2.17,6.73-3.57,11.08L284,143.76,405.27,20.16c1.39,4.32,2.47,7.69,3.56,11.06Z"/>
    <path d="M21.06,2.43C26.91,1.64,32.75.19,38.61.18Q185.51,0,332.4.08c13.17,0,26.35-.24,39.51.11,5.34.14,10.63,1.56,16.92,2.55-1.71,1.9-2.46,2.81-3.28,3.63Q308.45,83.1,231.33,159.81c-11.06,11-24.1,15.1-39,9.6a41.4,41.4,0,0,1-14.21-9.19Q100.22,83.18,22.69,5.75C22.13,5.2,21.63,4.59,21.1,4Z"/>
    <path d="M22.34,284.67,144.25,160.4c5.89,5.91,11.23,11.24,16.53,16.61,8.22,8.31,17.82,14.36,29.27,17,22.11,5,41.28-.7,57.47-16.46,5.52-5.38,10.82-11,16.66-16.91L386.37,285.25c-4.06.61-9.6,2.1-15.15,2.15-27.53.25-55.07.12-82.61.12q-125.12,0-250.24,0C32.34,287.54,26.56,286.74,22.34,284.67Z"/>
    <path d="M125,143.87,4,267.32A35.54,35.54,0,0,1,0,250q0-47.91,0-95.81c0-38.72-.1-77.45.11-116.17,0-5.67,1.54-11.34,2.36-17l1.73-.38Z"/>
  </g>
</svg>
