<svg xmlns="http://www.w3.org/2000/svg" viewBox="0 0 383.81 383.66">
  <title>Phone</title>
  <g fill="#FFF">
    <path d="M264.63,383.66c-6.49-1.08-13-1.94-19.47-3.27-17.23-3.56-33.35-10.28-49-18C134,331.67,84.31,286.84,45.49,229.71c-16.85-24.8-30.31-51.36-39.24-80C1.06,133-2,116,1.48,98.39A41.86,41.86,0,0,1,12.61,76.73C22.74,66.37,32.93,56.06,43.4,46c13.1-12.54,27.78-12.56,40.79.11,15.22,14.82,30.12,29.95,45,45.07,6.65,6.73,10.94,14.57,9.48,24.51-1.1,7.41-5.33,13.07-10.42,18.18-8.46,8.5-17,16.93-25.48,25.4-4.41,4.4-4.5,5.56-2,11.19,9.66,21.65,24.46,39.66,40.33,56.87s33.22,32.49,53,44.92c6.74,4.24,14,7.63,21,11.42,3.24,1.76,5.69.42,8-1.9,8.71-8.78,17.39-17.59,26.23-26.24a48.41,48.41,0,0,1,8.71-7c10.05-6.09,21.11-5.13,30.24,2.32,1.83,1.5,3.62,3.07,5.3,4.74,14.16,14.11,28.4,28.14,42.36,42.44a44.9,44.9,0,0,1,8.66,12.05c4.39,9.51,2.69,19-4.14,26.54-11.07,12.19-22.79,23.82-34.62,35.29-6.51,6.3-14.87,9.46-23.81,10.93-1.09.18-2.16.52-3.23.79Z"/>
    <path d="M383.81,179.76l-29.47,5.31c-7.34-40.51-25.43-75.14-54.75-103.65S235.12,35.75,194,29.54c1.37-9.9,2.73-19.68,4.1-29.54a213.48,213.48,0,0,1,53.24,14.33A217.72,217.72,0,0,1,333.14,73.4a216.46,216.46,0,0,1,46.1,86.43c1.65,6.11,3.05,12.29,4.57,18.43Z"/>
    <path d="M194.11,76.89C246,82.83,295.78,125.29,305.87,185l-29.29,5.05c-4.06-21.93-13.79-40.67-29.67-56.05S212.21,109.6,190,106.15C191.41,96.24,192.76,86.56,194.11,76.89Z"/>
  </g>
</svg>
